<svg width="125" height="125" viewBox="0 0 125 125" fill="none" xmlns="http://www.w3.org/2000/svg">
<path d="M61.65 122.525C61.6 121.325 61.6375 117.188 63.4625 114.7C65.6125 111.775 70 111.113 70.85 111.013C81.6625 109.538 92.075 105.038 100.175 98.3376C112.9 87.8251 119.75 72.4376 118.925 56.1501C118.113 39.8501 109.75 25.1251 95.975 15.7501C86.45 9.2626 75.1 5.8376 63.175 5.8376C58.0875 5.8376 53 6.4626 48 7.7251C31.2 11.9376 17.625 22.6626 10.75 37.1501C3.75 51.9126 4.5375 68.8126 12.9375 83.4751C21.3375 98.1501 35.925 108.125 53 110.863L54.2625 111.063L53.425 115.588L52.225 115.4C33.7 112.425 17.8625 101.6 8.775 85.7001C-0.374996 69.7501 -1.225 51.3501 6.4375 35.2251C13.9125 19.4751 28.625 7.8376 46.8375 3.2626C52.2125 1.9126 57.7125 1.2251 63.1875 1.2251C76.0875 1.2251 88.3875 4.9501 98.7125 11.9751C113.688 22.1501 122.775 38.1626 123.675 55.9126C124.575 73.6376 117.125 90.3751 103.263 101.838C94.5 109.075 83.2125 113.95 71.475 115.563H71.4125C70.6375 115.65 68.1875 116.163 67.325 117.35C66.5875 118.35 66.325 120.925 66.3875 122.35L66.4375 123.613L61.6875 123.775L61.65 122.525Z" fill="#C4C4C4"/>
<path d="M28.4125 63.1376L39.225 53.0501L28.4 42.9126L31.8125 39.7251L44.675 51.7501V51.7626L46.0625 53.0501L31.8125 66.3376L28.4125 63.1376Z" fill="#C4C4C4"/>
<path d="M78.5875 53.0877L81.9375 49.9002L81.95 49.9127L92.8 39.7627L96.2125 42.9502L85.375 53.1127L96.2125 63.1752L92.8 66.3877L78.5875 53.0877Z" fill="#C4C4C4"/>
<path d="M73.45 87.1502C73.2625 86.9627 68.825 82.5752 62.275 82.5752H62.225C55.95 82.6002 52.575 86.5127 52.2 86.9502L51.4625 87.8377L49.5875 86.5377L47.65 85.0877L48.475 84.0752C49.3125 83.0627 53.8625 78.0002 62.175 77.9502H62.2875C70.8 77.9502 76.2875 83.3752 76.875 83.9877L77.8125 84.9502L76.7875 85.8127L74.2375 87.9377L73.45 87.1502Z" fill="#C4C4C4"/>
</svg>
