<svg width="125" height="125" viewBox="0 0 125 125" fill="none" xmlns="http://www.w3.org/2000/svg">
<path d="M61.65 122.525C61.6 121.325 61.6375 117.188 63.4625 114.7C65.6125 111.775 70 111.112 70.85 111.012C81.6625 109.537 92.075 105.037 100.175 98.3375C112.9 87.825 119.75 72.4375 118.925 56.15C118.113 39.85 109.75 25.125 95.975 15.75C86.45 9.2625 75.1 5.8375 63.175 5.8375C58.0875 5.8375 53 6.4625 48 7.725C31.2 11.9375 17.625 22.6625 10.75 37.15C3.75 51.9125 4.5375 68.8125 12.9375 83.475C21.3375 98.15 35.925 108.125 53 110.863L54.2625 111.062L53.425 115.588L52.225 115.4C33.7 112.425 17.8625 101.6 8.775 85.7C-0.374996 69.75 -1.225 51.35 6.4375 35.225C13.9125 19.475 28.625 7.8375 46.8375 3.2625C52.2125 1.9125 57.7125 1.225 63.1875 1.225C76.0875 1.225 88.3875 4.95 98.7125 11.975C113.688 22.15 122.775 38.1625 123.675 55.9125C124.575 73.6375 117.125 90.375 103.263 101.838C94.5 109.075 83.2125 113.95 71.475 115.562H71.4125C70.6375 115.65 68.1875 116.162 67.325 117.35C66.5875 118.35 66.325 120.925 66.3875 122.35L66.4375 123.613L61.6875 123.775L61.65 122.525Z" fill="#C4C4C4"/>
<path d="M52.0125 78.7375C52.2 78.925 56.6375 83.3125 63.1875 83.3125H63.2375C69.5125 83.2875 72.8875 79.375 73.2625 78.9375L74 78.05L75.875 79.35L77.8125 80.8L76.9875 81.8125C76.15 82.825 71.6 87.8875 63.2875 87.9375H63.175C54.6625 87.9375 49.175 82.5125 48.5875 81.9L47.65 80.9375L48.675 80.075L51.225 77.95L52.0125 78.7375Z" fill="#C4C4C4"/>
<circle cx="87.4521" cy="53.4521" r="1.95211" fill="#C4C4C4" stroke="#C4C4C4" stroke-width="3"/>
<circle cx="37.4521" cy="53.4521" r="1.95211" fill="#C4C4C4" stroke="#C4C4C4" stroke-width="3"/>
</svg>
