<svg width="30" height="30" viewBox="0 0 30 30" fill="none" xmlns="http://www.w3.org/2000/svg">
<path d="M2.5 12.5L13.4382 3.7494C14.3512 3.01896 15.6488 3.01896 16.5618 3.7494L27.5 12.5" stroke="#4ECDC4" stroke-width="1.5" stroke-linecap="round" stroke-linejoin="round"/>
<path fill-rule="evenodd" clip-rule="evenodd" d="M6.84704 9.1243L11.847 5.0618C13.3572 3.83473 14.1124 3.22119 15 3.22119C15.8876 3.22119 16.6427 3.83473 18.153 5.0618L23.153 9.1243L23.153 9.12432C24.0608 9.86191 24.5146 10.2307 24.7574 10.7405C25 11.2503 25 11.8352 25 13.0049V17.5C25 22.214 25 24.5711 23.5355 26.0355C22.0711 27.5 19.714 27.5 15 27.5C10.286 27.5 7.92894 27.5 6.46446 26.0355C5 24.5711 5 22.214 5 17.5V13.0049C5 11.8352 5 11.2503 5.24265 10.7405C5.48531 10.2307 5.93921 9.86192 6.84699 9.12434L6.84704 9.1243ZM12.1875 19.5625C11.7733 19.5625 11.4375 19.8983 11.4375 20.3125C11.4375 20.7267 11.7733 21.0625 12.1875 21.0625H17.8125C18.2267 21.0625 18.5625 20.7267 18.5625 20.3125C18.5625 19.8983 18.2267 19.5625 17.8125 19.5625H12.1875Z" fill="#4ECDC4"/>
</svg>
