<svg width="22" height="25" viewBox="0 0 22 25" fill="none" xmlns="http://www.w3.org/2000/svg">
<path fill-rule="evenodd" clip-rule="evenodd" d="M1 10.75C1 5.22715 5.47715 0.75 11 0.75C16.5229 0.75 21 5.22715 21 10.75V11.1593C21 13.2663 20.3349 15.3075 19.117 17H19.125L19.1041 17.0179C18.853 17.3651 18.5787 17.6976 18.282 18.0129C17.4675 18.8783 11.9981 23.3666 11 23.875C11 23.875 4.16046 18.483 3.718 18.0129C3.42437 17.7009 3.15264 17.372 2.90374 17.0288L2.875 17H2.88298C1.66509 15.3075 1 13.2663 1 11.1593V10.75ZM11 6.6875C13.2437 6.6875 15.0625 8.50634 15.0625 10.75C15.0625 12.9937 13.2437 14.8125 11 14.8125C8.75634 14.8125 6.9375 12.9937 6.9375 10.75C6.9375 8.50634 8.75634 6.6875 11 6.6875Z" fill="#4ECDC4"/>
<path d="M19.117 17L18.5082 16.5619C18.3439 16.7904 18.3212 17.0916 18.4495 17.342C18.5779 17.5925 18.8356 17.75 19.117 17.75V17ZM19.125 17L19.6128 17.5697C19.8512 17.3655 19.9373 17.0344 19.8285 16.74C19.7196 16.4455 19.4389 16.25 19.125 16.25V17ZM19.1041 17.0179L18.6163 16.4482C18.5714 16.4867 18.5311 16.5304 18.4964 16.5784L19.1041 17.0179ZM18.282 18.0129L17.7359 17.4988L17.7359 17.4988L18.282 18.0129ZM11 23.875L10.5357 24.464C10.7655 24.6451 11.0796 24.6761 11.3404 24.5433L11 23.875ZM3.718 18.0129L3.17183 18.5269L3.17185 18.5269L3.718 18.0129ZM2.90374 17.0288L3.51091 16.5885C3.48774 16.5565 3.46209 16.5265 3.43419 16.4985L2.90374 17.0288ZM2.875 17V16.25C2.57169 16.25 2.29823 16.4327 2.18212 16.7129C2.06602 16.9931 2.13012 17.3157 2.34454 17.5302L2.875 17ZM2.88298 17V17.75C3.16439 17.75 3.42212 17.5925 3.55045 17.342C3.67878 17.0916 3.65611 16.7904 3.49175 16.5619L2.88298 17ZM11 0C5.06294 0 0.25 4.81294 0.25 10.75H1.75C1.75 5.64136 5.89136 1.5 11 1.5V0ZM21.75 10.75C21.75 4.81294 16.9371 0 11 0V1.5C16.1087 1.5 20.25 5.64136 20.25 10.75H21.75ZM21.75 11.1593V10.75H20.25V11.1593H21.75ZM19.7258 17.4381C21.035 15.6186 21.75 13.4243 21.75 11.1593H20.25C20.25 13.1082 19.6348 14.9964 18.5082 16.5619L19.7258 17.4381ZM19.125 16.25H19.117V17.75H19.125V16.25ZM19.5919 17.5876L19.6128 17.5697L18.6372 16.4303L18.6163 16.4482L19.5919 17.5876ZM18.8281 18.5269C19.1472 18.188 19.442 17.8305 19.7119 17.4574L18.4964 16.5784C18.264 16.8997 18.0103 17.2073 17.7359 17.4988L18.8281 18.5269ZM11.3404 24.5433C11.6625 24.3792 12.2496 23.9561 12.898 23.4635C13.5724 22.9512 14.3818 22.3101 15.1825 21.6601C16.7612 20.3787 18.3785 19.0046 18.8281 18.5269L17.7359 17.4988C17.371 17.8865 15.8464 19.1893 14.2372 20.4955C13.444 21.1394 12.648 21.7697 11.9907 22.269C11.3075 22.788 10.8365 23.1166 10.6596 23.2067L11.3404 24.5433ZM3.17185 18.5269C3.26458 18.6254 3.46054 18.7936 3.67589 18.9743C3.90968 19.1705 4.21666 19.4225 4.56949 19.7092C5.27571 20.2831 6.17433 21.0029 7.05749 21.7068C7.941 22.4109 8.8105 23.1001 9.45902 23.6133C9.78331 23.8699 10.0524 24.0825 10.2405 24.231C10.3345 24.3053 10.4083 24.3635 10.4585 24.4031C10.4837 24.423 10.5029 24.4382 10.5159 24.4484C10.5224 24.4535 10.5274 24.4574 10.5307 24.46C10.5323 24.4613 10.5336 24.4623 10.5344 24.463C10.5348 24.4633 10.5351 24.4636 10.5353 24.4637C10.5355 24.4638 10.5355 24.4639 10.5356 24.4639C10.5356 24.464 10.5357 24.464 11 23.875C11.4643 23.286 11.4643 23.286 11.4643 23.286C11.4642 23.2859 11.4641 23.2859 11.464 23.2858C11.4638 23.2856 11.4635 23.2854 11.4631 23.2851C11.4623 23.2844 11.4611 23.2834 11.4594 23.2821C11.4561 23.2796 11.4513 23.2757 11.4448 23.2706C11.4319 23.2604 11.4127 23.2453 11.3876 23.2255C11.3375 23.186 11.2639 23.1279 11.17 23.0538C10.9823 22.9056 10.7136 22.6933 10.3898 22.437C9.74208 21.9245 8.87404 21.2364 7.99235 20.5337C7.11032 19.8308 6.2161 19.1145 5.51546 18.5451C5.16487 18.2602 4.86491 18.0139 4.63998 17.8252C4.52732 17.7307 4.43593 17.6526 4.36751 17.5926C4.2914 17.5258 4.26414 17.4988 4.26415 17.4989L3.17185 18.5269ZM2.29657 17.469C2.56411 17.838 2.8562 18.1915 3.17183 18.5269L4.26417 17.4989C3.99255 17.2103 3.74117 16.906 3.51091 16.5885L2.29657 17.469ZM2.34454 17.5302L2.37328 17.559L3.43419 16.4985L3.40546 16.4698L2.34454 17.5302ZM2.88298 16.25H2.875V17.75H2.88298V16.25ZM0.25 11.1593C0.25 13.4243 0.964982 15.6186 2.2742 17.4381L3.49175 16.5619C2.36519 14.9964 1.75 13.1082 1.75 11.1593H0.25ZM0.25 10.75V11.1593H1.75V10.75H0.25ZM15.8125 10.75C15.8125 8.09213 13.6579 5.9375 11 5.9375V7.4375C12.8294 7.4375 14.3125 8.92056 14.3125 10.75H15.8125ZM11 15.5625C13.6579 15.5625 15.8125 13.4079 15.8125 10.75H14.3125C14.3125 12.5794 12.8294 14.0625 11 14.0625V15.5625ZM6.1875 10.75C6.1875 13.4079 8.34213 15.5625 11 15.5625V14.0625C9.17056 14.0625 7.6875 12.5794 7.6875 10.75H6.1875ZM11 5.9375C8.34213 5.9375 6.1875 8.09213 6.1875 10.75H7.6875C7.6875 8.92056 9.17056 7.4375 11 7.4375V5.9375Z" fill="#4ECDC4"/>
</svg>
