<svg width="30" height="30" viewBox="0 0 30 30" fill="none" xmlns="http://www.w3.org/2000/svg">
<path d="M2.5 12.5001L13.4382 3.74949C14.3512 3.01905 15.6488 3.01905 16.5618 3.74949L27.5 12.5001" stroke="#292F36" stroke-width="1.5" stroke-linecap="round" stroke-linejoin="round"/>
<path d="M11.847 5.0618L6.84704 9.1243C5.93923 9.8619 5.48531 10.2307 5.24265 10.7405C5 11.2503 5 11.8352 5 13.0049V17.5C5 22.214 5 24.5711 6.46446 26.0355C7.92894 27.5 10.286 27.5 15 27.5C19.714 27.5 22.0711 27.5 23.5355 26.0355C25 24.5711 25 22.214 25 17.5V13.0049C25 11.8352 25 11.2503 24.7574 10.7405C24.5146 10.2307 24.0607 9.8619 23.153 9.1243L18.153 5.0618C16.6427 3.83473 15.8876 3.22119 15 3.22119C14.1124 3.22119 13.3572 3.83473 11.847 5.0618Z" stroke="#292F36" stroke-width="1.5"/>
<path d="M12.1875 20.3125H17.8125" stroke="#292F36" stroke-width="1.5" stroke-linecap="round"/>
</svg>
