<svg width="30" height="30" viewBox="0 0 30 30" fill="none" xmlns="http://www.w3.org/2000/svg">
<path d="M15 3.75C9.47715 3.75 5 8.22715 5 13.75V14.1593C5 16.2663 5.66509 18.3075 6.88298 20H6.875L6.90374 20.0288C7.15264 20.372 7.42437 20.7009 7.718 21.0129C8.16046 21.483 15 26.875 15 26.875C15.9981 26.3666 21.4675 21.8783 22.282 21.0129C22.5787 20.6976 22.853 20.3651 23.1041 20.0179L23.125 20H23.117C24.3349 18.3075 25 16.2663 25 14.1593V13.75C25 8.22715 20.5229 3.75 15 3.75Z" stroke="#1B1B1B" stroke-width="1.5" stroke-linejoin="round"/>
<path d="M19.0625 13.75C19.0625 11.5063 17.2437 9.6875 15 9.6875C12.7563 9.6875 10.9375 11.5063 10.9375 13.75C10.9375 15.9937 12.7563 17.8125 15 17.8125C17.2437 17.8125 19.0625 15.9937 19.0625 13.75Z" stroke="#1B1B1B" stroke-width="1.5"/>
</svg>
