<svg width="20" height="20" viewBox="0 0 20 20" fill="none" xmlns="http://www.w3.org/2000/svg">
<path d="M6.66666 5.83334H16.6667C17.125 5.83334 17.5 5.45834 17.5 5.00001C17.5 4.54168 17.125 4.16668 16.6667 4.16668H6.66666C6.20832 4.16668 5.83332 4.54168 5.83332 5.00001C5.83332 5.45834 6.20832 5.83334 6.66666 5.83334ZM16.6667 14.1667H6.66666C6.20832 14.1667 5.83332 14.5417 5.83332 15C5.83332 15.4583 6.20832 15.8333 6.66666 15.8333H16.6667C17.125 15.8333 17.5 15.4583 17.5 15C17.5 14.5417 17.125 14.1667 16.6667 14.1667ZM16.6667 9.16668H6.66666C6.20832 9.16668 5.83332 9.54168 5.83332 10C5.83332 10.4583 6.20832 10.8333 6.66666 10.8333H16.6667C17.125 10.8333 17.5 10.4583 17.5 10C17.5 9.54168 17.125 9.16668 16.6667 9.16668ZM3.74999 13.3333H2.08332C1.84999 13.3333 1.66666 13.5167 1.66666 13.75C1.66666 13.9833 1.84999 14.1667 2.08332 14.1667H3.33332V14.5833H2.91666C2.68332 14.5833 2.49999 14.7667 2.49999 15C2.49999 15.2333 2.68332 15.4167 2.91666 15.4167H3.33332V15.8333H2.08332C1.84999 15.8333 1.66666 16.0167 1.66666 16.25C1.66666 16.4833 1.84999 16.6667 2.08332 16.6667H3.74999C3.98332 16.6667 4.16666 16.4833 4.16666 16.25V13.75C4.16666 13.5167 3.98332 13.3333 3.74999 13.3333ZM2.08332 4.16668H2.49999V6.25001C2.49999 6.48334 2.68332 6.66668 2.91666 6.66668C3.14999 6.66668 3.33332 6.48334 3.33332 6.25001V3.75001C3.33332 3.51668 3.14999 3.33334 2.91666 3.33334H2.08332C1.84999 3.33334 1.66666 3.51668 1.66666 3.75001C1.66666 3.98334 1.84999 4.16668 2.08332 4.16668ZM3.74999 8.33334H2.08332C1.84999 8.33334 1.66666 8.51668 1.66666 8.75001C1.66666 8.98334 1.84999 9.16668 2.08332 9.16668H3.16666L1.76666 10.8C1.69999 10.875 1.66666 10.975 1.66666 11.0667V11.25C1.66666 11.4833 1.84999 11.6667 2.08332 11.6667H3.74999C3.98332 11.6667 4.16666 11.4833 4.16666 11.25C4.16666 11.0167 3.98332 10.8333 3.74999 10.8333H2.66666L4.06666 9.20001C4.13332 9.12501 4.16666 9.02501 4.16666 8.93334V8.75001C4.16666 8.51668 3.98332 8.33334 3.74999 8.33334Z" fill="#4ECDC4"/>
</svg>
