<svg width="30" height="30" viewBox="0 0 30 30" fill="none" xmlns="http://www.w3.org/2000/svg">
<path d="M21.25 8.4375H8.75C5.81599 8.4375 3.4375 10.816 3.4375 13.75V21.25C3.4375 24.184 5.81599 26.5625 8.75 26.5625H21.25C24.184 26.5625 26.5625 24.184 26.5625 21.25V13.75C26.5625 10.816 24.184 8.4375 21.25 8.4375Z" stroke="#292F36" stroke-width="1.5"/>
<path fill-rule="evenodd" clip-rule="evenodd" d="M9.81448 11.25C10.4869 11.25 10.9151 10.4589 10.7533 9.80616C10.6695 9.46793 10.625 9.11416 10.625 8.75C10.625 6.33375 12.5838 4.375 15 4.375C17.4163 4.375 19.375 6.33375 19.375 8.75C19.375 9.11416 19.3305 9.46793 19.2466 9.80616C19.0849 10.4589 19.5131 11.25 20.1855 11.25C20.5162 11.25 20.8204 11.0557 20.9258 10.7422C21.136 10.1165 21.25 9.44656 21.25 8.75C21.25 5.29822 18.4517 2.5 15 2.5C11.5482 2.5 8.75 5.29822 8.75 8.75C8.75 9.44656 8.86395 10.1165 9.07422 10.7422C9.17956 11.0557 9.48379 11.25 9.81448 11.25Z" fill="#292F36"/>
</svg>
